<?xml version="1.0" standalone="no"?>
<!DOCTYPE svg PUBLIC "-//W3C//DTD SVG 20010904//EN"
  "http://www.w3.org/TR/2001/REC-SVG-20010904/DTD/svg10.dtd">
<svg version="1.0" xmlns="http://www.w3.org/2000/svg"
  width="32.000000pt" height="29.000000pt" viewBox="0 0 32.000000 29.000000"
  preserveAspectRatio="xMidYMid meet">

<g transform="translate(0.000000,29.000000) scale(0.100000,-0.100000)"
stroke="none">
<path d="M171 277 c-18 -18 -13 -39 16 -69 34 -36 55 -35 87 3 29 34 30 38 17
58 -11 18 -104 24 -120 8z m47 -19 c8 -8 15 -8 27 2 12 10 19 10 28 1 9 -9 5
-18 -16 -38 l-27 -28 -26 27 c-15 14 -23 31 -20 37 9 14 19 14 34 -1z"/>
<path d="M4 136 c-3 -7 -4 -40 -2 -72 3 -54 5 -59 27 -62 15 -2 30 3 37 13 10
14 18 15 55 5 63 -17 167 6 191 43 14 23 -4 39 -40 33 -26 -4 -38 -1 -51 14
-11 13 -40 21 -100 29 -107 14 -111 14 -117 -3z m56 -23 c0 -46 -14 -93 -26
-93 -10 0 -14 15 -14 55 0 48 2 55 20 55 12 0 20 -7 20 -17z m104 1 c51 -7 63
-24 16 -24 -16 0 -30 -5 -30 -11 0 -8 23 -10 75 -7 41 3 72 1 70 -3 -12 -18
-108 -41 -147 -35 -63 10 -75 20 -70 55 5 34 9 35 86 25z"/>
</g>
</svg>
