<?xml version="1.0" standalone="no"?>
<!DOCTYPE svg PUBLIC "-//W3C//DTD SVG 20010904//EN"
  "http://www.w3.org/TR/2001/REC-SVG-20010904/DTD/svg10.dtd">
<svg version="1.0" xmlns="http://www.w3.org/2000/svg"
  width="23.000000pt" height="25.000000pt" viewBox="0 0 23.000000 25.000000"
  preserveAspectRatio="xMidYMid meet">

<g transform="translate(0.000000,25.000000) scale(0.100000,-0.100000)"
stroke="none">
<path d="M0 180 c0 -57 23 -96 71 -120 38 -20 45 -40 13 -40 -8 0 -14 -4 -14
-10 0 -13 77 -13 85 0 3 5 -3 10 -14 10 -35 0 -23 24 19 42 29 12 45 27 55 52
17 40 20 106 5 106 -5 0 -10 -21 -10 -46 0 -37 -5 -51 -29 -75 -27 -27 -70
-42 -56 -19 3 6 12 10 20 10 23 0 45 42 45 88 0 24 -4 41 -8 38 -5 -3 -7 -18
-4 -34 3 -20 -3 -37 -21 -58 -14 -16 -29 -26 -33 -21 -4 4 2 14 14 23 16 11
22 25 22 55 0 21 -4 39 -10 39 -5 0 -10 -18 -10 -40 0 -22 -4 -40 -10 -40 -5
0 -10 18 -10 41 0 27 -4 38 -11 33 -7 -4 -9 -21 -6 -40 3 -19 2 -34 -4 -34 -5
0 -9 18 -9 40 0 22 -4 40 -10 40 -16 0 -11 -72 7 -92 23 -26 9 -34 -16 -9 -15
15 -21 34 -21 63 0 23 -3 38 -7 34 -4 -4 -6 -26 -4 -49 3 -43 24 -77 47 -77 7
0 16 -5 19 -10 14 -23 -29 -8 -56 19 -24 24 -29 38 -29 75 0 25 -4 46 -10 46
-5 0 -10 -18 -10 -40z"/>
</g>
</svg>
