<?xml version="1.0" standalone="no"?>
<!DOCTYPE svg PUBLIC "-//W3C//DTD SVG 20010904//EN"
 "http://www.w3.org/TR/2001/REC-SVG-20010904/DTD/svg10.dtd">
<svg version="1.0" xmlns="http://www.w3.org/2000/svg"
 width="28.000000pt" height="33.000000pt" viewBox="0 0 28.000000 33.000000"
 preserveAspectRatio="xMidYMid meet">

<g transform="translate(0.000000,33.000000) scale(0.100000,-0.100000)"
fill="#000000" stroke="none">
<path d="M115 292 c-17 -31 -26 -37 -55 -39 -19 -1 -41 -2 -47 -2 -9 -1 -6
-14 8 -44 l21 -43 -21 -42 -21 -41 48 -3 c43 -3 49 -6 67 -40 11 -21 22 -38
25 -38 3 0 14 17 25 38 18 34 24 37 67 40 l48 3 -21 41 -21 42 21 43 c14 30
17 43 8 44 -6 0 -28 1 -47 2 -29 2 -38 8 -55 39 -11 21 -22 38 -25 38 -3 0
-14 -17 -25 -38z m39 -18 c9 -23 8 -24 -14 -24 -11 0 -20 2 -20 4 0 12 13 36
20 36 4 0 11 -7 14 -16z m-85 -65 c-9 -17 -13 -19 -20 -8 -14 22 -11 29 11 29
18 0 19 -3 9 -21z m124 -11 c17 -30 17 -33 0 -65 -15 -28 -23 -33 -53 -33 -29
0 -38 6 -53 32 -17 30 -17 33 0 65 15 28 23 33 53 33 29 0 38 -6 53 -32z m47
25 c0 -5 -4 -14 -9 -22 -7 -11 -11 -9 -20 8 -10 18 -9 21 9 21 11 0 20 -3 20
-7z m-170 -103 c9 -18 8 -20 -15 -20 -23 0 -24 2 -13 20 7 11 14 20 15 20 1 0
7 -9 13 -20z m169 -2 c12 -16 11 -18 -13 -18 -24 0 -26 2 -16 21 7 11 13 19
14 17 1 -1 8 -11 15 -20z m-79 -45 c0 -5 -5 -15 -10 -23 -9 -13 -11 -13 -20 0
-15 22 -12 30 10 30 11 0 20 -3 20 -7z"/>
</g>
</svg>
