<?xml version="1.0" standalone="no"?>
<!DOCTYPE svg PUBLIC "-//W3C//DTD SVG 20010904//EN"
  "http://www.w3.org/TR/2001/REC-SVG-20010904/DTD/svg10.dtd">
<svg version="1.0" xmlns="http://www.w3.org/2000/svg"
  width="36.000000pt" height="35.000000pt" viewBox="0 0 36.000000 35.000000"
  preserveAspectRatio="xMidYMid meet">

<g transform="translate(0.000000,35.000000) scale(0.100000,-0.100000)"
stroke="none">
<path d="M87 295 l-89 -52 31 -22 c23 -17 31 -30 31 -53 0 -16 8 -43 17 -59
14 -24 15 -33 5 -49 -21 -34 -15 -60 13 -60 28 0 34 25 14 61 -10 19 -8 20 34
14 90 -14 157 24 157 89 0 27 7 39 31 57 l31 21 -92 54 c-51 30 -93 54 -94 53
0 0 -41 -25 -89 -54z m168 -12 c36 -21 65 -40 65 -43 0 -7 -130 -80 -144 -80
-6 0 -22 9 -36 19 l-24 19 37 18 c20 10 37 21 37 26 0 12 -6 10 -51 -13 -35
-17 -45 -19 -70 -9 -16 7 -29 15 -29 19 0 9 122 80 138 81 7 0 42 -17 77 -37z
m-165 -125 c0 -25 -3 -29 -10 -18 -13 20 -13 50 0 50 6 0 10 -15 10 -32z m200
13 c0 -53 -71 -91 -144 -77 -30 6 -34 11 -38 41 -5 40 -1 42 41 18 30 -18 32
-18 78 9 57 33 63 34 63 9z m-185 -141 c3 -5 1 -10 -4 -10 -6 0 -11 5 -11 10
0 6 2 10 4 10 3 0 8 -4 11 -10z"/>
</g>
</svg>
